#!OML:ASF F:\VICON\USERDATA\INSTALL\rory3\rory3.ASF
:FULLY-SPECIFIED
:DEGREES
2580
root 0.227867 17.642 3.40816 -14.0122 -85.2947 24.4882
lowerback 5.46005 0.0947159 -4.59325
upperback 5.10872 -0.186213 1.67482
thorax 2.24186 -0.318031 4.3174
lowerneck -15.2398 0.586707 -11.6761
upperneck 38.6658 1.54647 4.31471
head 16.277 -0.938089 4.12465
rclavicle 1.72943e-014 3.89618e-014
rhumerus -27.2463 -3.46716 -78.7424
rradius 33.1998
rwrist 12.8992
rhand -20.9011 0.768575
rfingers 7.12502
rthumb 5.46987 -29.1408
lclavicle 1.72943e-014 3.89618e-014
lhumerus -26.223 2.8089 82.2125
lradius 35.5536
lwrist -2.95135
lhand -12.061 29.8912
lfingers 7.12502
lthumb 13.9982 59.3999
rfemur -24.2726 -3.4842 11.349
rtibia 63.287
rfoot -4.44692 3.5783
rtoes -8.88065
lfemur -26.847 -0.327568 -24.5614
ltibia 30.4065
lfoot -10.6597 -4.3233
ltoes -5.25234
2581
root 0.150603 17.6478 3.42464 -14.1369 -85.2036 24.3021
lowerback 5.41033 0.139497 -4.68341
upperback 5.09148 -0.125545 1.63476
thorax 2.24566 -0.28871 4.32446
lowerneck -15.0595 0.702816 -11.4106
upperneck 38.5182 1.77926 3.90427
head 16.1421 -0.849197 3.92417
rclavicle 2.38542e-015 1.78906e-014
rhumerus -26.7978 -3.17895 -79.2197
rradius 34.381
rwrist 12.5596
rhand -20.7358 1.1971
rfingers 7.12502
rthumb 5.62941 -28.7081
lclavicle 2.38542e-015 1.78906e-014
lhumerus -25.8797 1.84575 82.6675
lradius 36.8049
lwrist -2.68481
lhand -12.4564 29.6515
lfingers 7.12502
lthumb 13.6172 59.1861
rfemur -24.6164 -3.60002 11.2154
rtibia 63.8115
rfoot -5.37897 2.54496
rtoes -6.87763
lfemur -26.1612 -0.146958 -24.6509
ltibia 30.3223
lfoot -10.9333 -4.66663
ltoes -4.42208
2582
root 0.0816331 17.6525 3.43835 -13.3131 -84.9546 23.2469
lowerback 5.438 0.141389 -4.69551
upperback 5.00901 -0.121474 1.5978
thorax 2.14369 -0.280252 4.2928
lowerneck -15.0034 0.762311 -11.3209
upperneck 38.5062 1.91314 3.71089
head 16.1143 -0.80644 3.84326
rclavicle 1.11319e-014 -1.19271e-015
rhumerus -26.6416 -2.62819 -79.7292
rradius 35.8853
rwrist 12.1621
rhand -20.943 1.06271
rfingers 7.12502
rthumb 5.42936 -28.8477
lclavicle 1.11319e-014 -1.19271e-015
lhumerus -25.5336 0.860162 83.0823
lradius 38.0247
lwrist -2.52697
lhand -12.6382 29.3062
lfingers 7.12502
lthumb 13.4419 58.8525
rfemur -25.0409 -3.77555 11.1453
rtibia 64.2221
rfoot -6.24633 1.42412
rtoes -3.35584
lfemur -25.5879 -0.159227 -24.681
ltibia 30.2118
lfoot -11.067 -4.93806
ltoes -4.42073
2583
root 0.0104366 17.6591 3.44601 -12.4308 -84.7313 22.1661
lowerback 5.41497 0.123455 -4.72094
upperback 4.93078 -0.141536 1.5429
thorax 2.0771 -0.2849 4.25066
lowerneck -15.0363 0.889564 -11.2466
upperneck 38.541 2.11435 3.65751
head 16.1197 -0.72139 3.84176
rclavicle -3.77691e-015 -4.77083e-015
rhumerus -26.3875 -1.77818 -80.4516
rradius 37.3303
rwrist 11.8827
rhand -21.7558 0.312842
rfingers 7.12502
rthumb 4.64454 -29.6162
lclavicle -3.77691e-015 -4.77083e-015
lhumerus -25.2193 0.0581468 83.3745
lradius 39.3016
lwrist -2.46571
lhand -12.8797 29.0159
lfingers 7.12502
lthumb 13.2092 58.5774
rfemur -25.488 -3.80806 11.1208
rtibia 64.513
rfoot -6.89929 0.647254
rtoes 0.876384
lfemur -25.0147 -0.263139 -24.6348
ltibia 30.0357
lfoot -11.1322 -5.1124
ltoes -4.0337
2584
root -0.063565 17.6668 3.45356 -11.508 -84.5852 21.0133
lowerback 5.3897 0.12487 -4.67084
upperback 4.86301 -0.133368 1.46691
thorax 2.01859 -0.273608 4.14282
lowerneck -15.0817 1.04195 -11.1239
upperneck 38.6294 2.33733 3.60017
head 16.1541 -0.625136 3.8357
rclavicle -4.77083e-015 8.34896e-015
rhumerus -26.0332 -1.03557 -81.1133
rradius 38.528
rwrist 11.7266
rhand -22.4213 0.343795
rfingers 7.12502
rthumb 4.00192 -29.5984
lclavicle -4.77083e-015 8.34896e-015
lhumerus -24.9783 -0.819555 83.6185
lradius 40.6727
lwrist -2.30993
lhand -13.11 28.8786
lfingers 7.12502
lthumb 12.9872 58.4543
rfemur -25.8971 -3.65946 11.1124
rtibia 64.6859
rfoot -7.33215 0.343903
rtoes 3.18875
lfemur -24.3684 -0.320532 -24.5644
ltibia 29.8016
lfoot -11.2778 -5.32224
ltoes -3.94941
2585
root -0.139576 17.6742 3.46388 -11.992 -84.3524 21.3049
lowerback 5.32542 0.160803 -4.70326
upperback 4.77797 -0.0792006 1.36495
thorax 1.95982 -0.240377 4.05298
lowerneck -15.07 1.11123 -10.9633
upperneck 38.6844 2.47765 3.38141
head 16.1745 -0.577601 3.73569
rclavicle 8.34896e-015 1.98785e-015
rhumerus -25.7337 -0.508128 -81.5504
rradius 39.5996
rwrist 11.4516
rhand -23.0228 1.4247
rfingers 7.12502
rthumb 3.42105 -28.5276
lclavicle 8.34896e-015 1.98785e-015
lhumerus -24.7255 -1.81577 83.8949
lradius 42.0275
lwrist -2.10505
lhand -13.1816 28.4527
lfingers 7.12502
lthumb 12.9182 58.0328
rfemur -26.3117 -3.52167 10.9236
rtibia 64.7418
rfoot -7.76765 -0.171895
rtoes 1.04138
lfemur -23.7378 -0.36458 -24.7135
ltibia 29.5464
lfoot -11.4436 -5.55683
ltoes -5.0637
2586
root -0.214226 17.6787 3.47457 -12.4576 -84.0063 21.5444
lowerback 5.3298 0.179962 -4.7727
upperback 4.70927 -0.05338 1.29872
thorax 1.88348 -0.22339 4.02248
lowerneck -15.1134 1.16372 -10.8729
upperneck 38.7261 2.61166 3.20728
head 16.2011 -0.534747 3.66788
rclavicle -1.59028e-015 -6.75868e-015
rhumerus -25.4547 0.0902942 -81.9132
rradius 40.7728
rwrist 11.0446
rhand -23.6166 2.34383
rfingers 7.12502
rthumb 2.8476 -27.6169
lclavicle -1.59028e-015 -6.75868e-015
lhumerus -24.4097 -2.47729 84.1975
lradius 43.2696
lwrist -2.18743
lhand -12.8466 27.7705
lfingers 7.12502
lthumb 13.2411 57.3299
rfemur -26.6167 -3.46959 10.7465
rtibia 64.6591
rfoot -8.44702 -1.21375
rtoes -2.69179
lfemur -23.0805 -0.457828 -24.8907
ltibia 29.2992
lfoot -11.6414 -5.69679
ltoes -7.00488
